<svg xmlns="http://www.w3.org/2000/svg" xmlns:xlink="http://www.w3.org/1999/xlink" width="686.4" height="806.3" viewBox="0 0 624 733" style="background-color:#fff"><defs id="defs_block"><filter id="filter_blur" width="1.157" height="1.504" x="-.079" y="-.252"><feGaussianBlur id="feGaussianBlur3780" stdDeviation="4.2"/></filter></defs><title>Bidirectional Streaming RPC</title><desc/><rect style="filter:url(#filter_blur);opacity:.7;fill-opacity:1" width="8" height="558" x="231" y="153" fill="#000"/><rect style="filter:url(#filter_blur);opacity:.7;fill-opacity:1" width="8" height="488" x="423" y="153" fill="#000"/><polygon fill="#000" stroke="#000" points="87 126 211 126 219 134 219 180 87 180 87 126" style="filter:url(#filter_blur);opacity:.7;fill-opacity:1"/><polygon fill="#000" stroke="#000" points="51 220 211 220 219 228 219 287 51 287 51 220" style="filter:url(#filter_blur);opacity:.7;fill-opacity:1"/><polygon fill="#000" stroke="#000" points="443 407 603 407 611 415 611 474 443 474 443 407" style="filter:url(#filter_blur);opacity:.7;fill-opacity:1"/><polygon fill="#000" stroke="#000" points="27 514 211 514 219 522 219 568 27 568 27 514" style="filter:url(#filter_blur);opacity:.7;fill-opacity:1"/><polygon fill="#000" stroke="#000" points="443 608 573 608 581 616 581 675 443 675 443 608" style="filter:url(#filter_blur);opacity:.7;fill-opacity:1"/><rect style="filter:url(#filter_blur);opacity:.7;fill-opacity:1" width="128" height="40" x="171" y="46" fill="#000" stroke="#000"/><rect style="filter:url(#filter_blur);opacity:.7;fill-opacity:1" width="128" height="40" x="363" y="46" fill="#000" stroke="#000"/><path fill="none" stroke="#000" stroke-dasharray="8 4" d="M 232 80 L 232 321"/><path fill="none" stroke="#000" stroke-dasharray="2 8" d="M 232 329 L 232 353"/><path fill="none" stroke="#000" stroke-dasharray="8 4" d="M 232 361 L 232 721"/><rect width="8" height="558" x="228" y="147" fill="#ffe4b5" stroke="#000"/><path fill="none" stroke="#000" stroke-dasharray="8 4" d="M 424 80 L 424 321"/><path fill="none" stroke="#000" stroke-dasharray="2 8" d="M 424 329 L 424 353"/><path fill="none" stroke="#000" stroke-dasharray="8 4" d="M 424 361 L 424 721"/><rect width="8" height="488" x="420" y="147" fill="#ffe4b5" stroke="#000"/><rect width="128" height="40" x="168" y="40" fill="#FFF" stroke="#000"/><text x="232" y="66" fill="#000" font-family="sans-serif" font-size="11" font-style="normal" font-weight="normal" text-anchor="middle" textLength="36">client</text><rect width="128" height="40" x="360" y="40" fill="#FFF" stroke="#000"/><text x="424" y="66" fill="#000" font-family="sans-serif" font-size="11" font-style="normal" font-weight="normal" text-anchor="middle" textLength="36">server</text><path fill="none" stroke="#000" d="M 240 147 L 416 147"/><polygon fill="#000" stroke="#000" points="408 143 416 147 408 151"/><polygon fill="#F0F8FF" stroke="#000" points="84 120 208 120 216 128 216 174 84 174 84 120"/><path fill="none" stroke="#000" d="M 208 120 L 208 128"/><path fill="none" stroke="#000" d="M 208 128 L 216 128"/><text x="146" y="133" fill="#000" font-family="sans-serif" font-size="11" font-style="normal" font-weight="normal" text-anchor="middle" textLength="108">PacketType.REQUEST</text><text x="122" y="146" fill="#000" font-family="sans-serif" font-size="11" font-style="normal" font-weight="normal" text-anchor="middle" textLength="60">channel ID</text><text x="122" y="159" fill="#000" font-family="sans-serif" font-size="11" font-style="normal" font-weight="normal" text-anchor="middle" textLength="60">service ID</text><text x="119" y="172" fill="#000" font-family="sans-serif" font-size="11" font-style="normal" font-weight="normal" text-anchor="middle" textLength="54">method ID</text><path fill="none" stroke="#000" stroke-dasharray="4" d="M 240 247 L 416 247"/><polygon fill="#000" stroke="#000" points="408 243 416 247 408 251"/><polygon fill="#F0F8FF" stroke="#000" points="48 214 208 214 216 222 216 281 48 281 48 214"/><path fill="none" stroke="#000" d="M 208 214 L 208 222"/><path fill="none" stroke="#000" d="M 208 222 L 216 222"/><text x="128" y="227" fill="#000" font-family="sans-serif" font-size="11" font-style="normal" font-weight="normal" text-anchor="middle" textLength="144">PacketType.CLIENT_STREAM</text><text x="86" y="240" fill="#000" font-family="sans-serif" font-size="11" font-style="normal" font-weight="normal" text-anchor="middle" textLength="60">channel ID</text><text x="86" y="253" fill="#000" font-family="sans-serif" font-size="11" font-style="normal" font-weight="normal" text-anchor="middle" textLength="60">service ID</text><text x="83" y="266" fill="#000" font-family="sans-serif" font-size="11" font-style="normal" font-weight="normal" text-anchor="middle" textLength="54">method ID</text><text x="77" y="279" fill="#000" font-family="sans-serif" font-size="11" font-style="normal" font-weight="normal" text-anchor="middle" textLength="42">payload</text><path fill="none" stroke="#000" stroke-dasharray="4" d="M 240 434 L 416 434"/><polygon fill="#000" stroke="#000" points="248 430 240 434 248 438"/><polygon fill="#F0F8FF" stroke="#000" points="440 401 600 401 608 409 608 468 440 468 440 401"/><path fill="none" stroke="#000" d="M 600 401 L 600 409"/><path fill="none" stroke="#000" d="M 600 409 L 608 409"/><text x="520" y="414" fill="#000" font-family="sans-serif" font-size="11" font-style="normal" font-weight="normal" text-anchor="middle" textLength="144">PacketType.SERVER_STREAM</text><text x="478" y="427" fill="#000" font-family="sans-serif" font-size="11" font-style="normal" font-weight="normal" text-anchor="middle" textLength="60">channel ID</text><text x="478" y="440" fill="#000" font-family="sans-serif" font-size="11" font-style="normal" font-weight="normal" text-anchor="middle" textLength="60">service ID</text><text x="475" y="453" fill="#000" font-family="sans-serif" font-size="11" font-style="normal" font-weight="normal" text-anchor="middle" textLength="54">method ID</text><text x="469" y="466" fill="#000" font-family="sans-serif" font-size="11" font-style="normal" font-weight="normal" text-anchor="middle" textLength="42">payload</text><path fill="none" stroke="#000" d="M 240 535 L 416 535"/><polygon fill="#000" stroke="#000" points="408 531 416 535 408 539"/><polygon fill="#F0F8FF" stroke="#000" points="24 508 208 508 216 516 216 562 24 562 24 508"/><path fill="none" stroke="#000" d="M 208 508 L 208 516"/><path fill="none" stroke="#000" d="M 208 516 L 216 516"/><text x="116" y="521" fill="#000" font-family="sans-serif" font-size="11" font-style="normal" font-weight="normal" text-anchor="middle" textLength="168">PacketType.CLIENT_STREAM_END</text><text x="62" y="534" fill="#000" font-family="sans-serif" font-size="11" font-style="normal" font-weight="normal" text-anchor="middle" textLength="60">channel ID</text><text x="62" y="547" fill="#000" font-family="sans-serif" font-size="11" font-style="normal" font-weight="normal" text-anchor="middle" textLength="60">service ID</text><text x="59" y="560" fill="#000" font-family="sans-serif" font-size="11" font-style="normal" font-weight="normal" text-anchor="middle" textLength="54">method ID</text><path fill="none" stroke="#000" d="M 240 635 L 416 635"/><polygon fill="#000" stroke="#000" points="248 631 240 635 248 639"/><polygon fill="#F0F8FF" stroke="#000" points="440 602 570 602 578 610 578 669 440 669 440 602"/><path fill="none" stroke="#000" d="M 570 602 L 570 610"/><path fill="none" stroke="#000" d="M 570 610 L 578 610"/><text x="505" y="615" fill="#000" font-family="sans-serif" font-size="11" font-style="normal" font-weight="normal" text-anchor="middle" textLength="114">PacketType.RESPONSE</text><text x="478" y="628" fill="#000" font-family="sans-serif" font-size="11" font-style="normal" font-weight="normal" text-anchor="middle" textLength="60">channel ID</text><text x="478" y="641" fill="#000" font-family="sans-serif" font-size="11" font-style="normal" font-weight="normal" text-anchor="middle" textLength="60">service ID</text><text x="475" y="654" fill="#000" font-family="sans-serif" font-size="11" font-style="normal" font-weight="normal" text-anchor="middle" textLength="54">method ID</text><text x="466" y="667" fill="#000" font-family="sans-serif" font-size="11" font-style="normal" font-weight="normal" text-anchor="middle" textLength="36">status</text><text x="259" y="145" fill="#000" font-family="sans-serif" font-size="11" font-style="normal" font-weight="normal" text-anchor="middle" textLength="30">start</text><text x="313" y="245" fill="#000" font-family="sans-serif" font-size="11" font-style="normal" font-weight="normal" text-anchor="middle" textLength="138">messages (zero or more)</text><text x="347" y="432" fill="#000" font-family="sans-serif" font-size="11" font-style="normal" font-weight="normal" text-anchor="middle" textLength="138">messages (zero or more)</text><text x="256" y="533" fill="#000" font-family="sans-serif" font-size="11" font-style="normal" font-weight="normal" text-anchor="middle" textLength="24">done</text><text x="404" y="633" fill="#000" font-family="sans-serif" font-size="11" font-style="normal" font-weight="normal" text-anchor="middle" textLength="24">done</text><rect width="158" height="19" x="249" y="331" fill="#fff" stroke="#fff"/><text x="328" y="346" fill="#000" font-family="sans-serif" font-size="11" font-style="normal" font-weight="normal" text-anchor="middle" textLength="138">(messages in any order)</text></svg>