<svg xmlns="http://www.w3.org/2000/svg" xmlns:xlink="http://www.w3.org/1999/xlink" width="653.4" height="614.9" viewBox="0 0 594 559" style="background-color:#fff"><defs id="defs_block"><filter id="filter_blur" width="1.157" height="1.504" x="-.079" y="-.252"><feGaussianBlur id="feGaussianBlur3780" stdDeviation="4.2"/></filter></defs><title>Client Streaming RPC</title><desc/><rect style="filter:url(#filter_blur);opacity:.7;fill-opacity:1" width="8" height="384" x="231" y="153" fill="#000"/><rect style="filter:url(#filter_blur);opacity:.7;fill-opacity:1" width="8" height="308" x="423" y="153" fill="#000"/><polygon fill="#000" stroke="#000" points="87 126 211 126 219 134 219 180 87 180 87 126" style="filter:url(#filter_blur);opacity:.7;fill-opacity:1"/><polygon fill="#000" stroke="#000" points="51 220 211 220 219 228 219 287 51 287 51 220" style="filter:url(#filter_blur);opacity:.7;fill-opacity:1"/><polygon fill="#000" stroke="#000" points="27 327 211 327 219 335 219 381 27 381 27 327" style="filter:url(#filter_blur);opacity:.7;fill-opacity:1"/><polygon fill="#000" stroke="#000" points="443 421 573 421 581 429 581 501 443 501 443 421" style="filter:url(#filter_blur);opacity:.7;fill-opacity:1"/><rect style="filter:url(#filter_blur);opacity:.7;fill-opacity:1" width="128" height="40" x="171" y="46" fill="#000" stroke="#000"/><rect style="filter:url(#filter_blur);opacity:.7;fill-opacity:1" width="128" height="40" x="363" y="46" fill="#000" stroke="#000"/><path fill="none" stroke="#000" stroke-dasharray="8 4" d="M 232 80 L 232 547"/><rect width="8" height="384" x="228" y="147" fill="#ffe4b5" stroke="#000"/><path fill="none" stroke="#000" stroke-dasharray="8 4" d="M 424 80 L 424 547"/><rect width="8" height="308" x="420" y="147" fill="#ffe4b5" stroke="#000"/><rect width="128" height="40" x="168" y="40" fill="#FFF" stroke="#000"/><text x="232" y="66" fill="#000" font-family="sans-serif" font-size="11" font-style="normal" font-weight="normal" text-anchor="middle" textLength="36">client</text><rect width="128" height="40" x="360" y="40" fill="#FFF" stroke="#000"/><text x="424" y="66" fill="#000" font-family="sans-serif" font-size="11" font-style="normal" font-weight="normal" text-anchor="middle" textLength="36">server</text><path fill="none" stroke="#000" d="M 240 147 L 416 147"/><polygon fill="#000" stroke="#000" points="408 143 416 147 408 151"/><polygon fill="#F0F8FF" stroke="#000" points="84 120 208 120 216 128 216 174 84 174 84 120"/><path fill="none" stroke="#000" d="M 208 120 L 208 128"/><path fill="none" stroke="#000" d="M 208 128 L 216 128"/><text x="146" y="133" fill="#000" font-family="sans-serif" font-size="11" font-style="normal" font-weight="normal" text-anchor="middle" textLength="108">PacketType.REQUEST</text><text x="122" y="146" fill="#000" font-family="sans-serif" font-size="11" font-style="normal" font-weight="normal" text-anchor="middle" textLength="60">channel ID</text><text x="122" y="159" fill="#000" font-family="sans-serif" font-size="11" font-style="normal" font-weight="normal" text-anchor="middle" textLength="60">service ID</text><text x="119" y="172" fill="#000" font-family="sans-serif" font-size="11" font-style="normal" font-weight="normal" text-anchor="middle" textLength="54">method ID</text><path fill="none" stroke="#000" stroke-dasharray="4" d="M 240 247 L 416 247"/><polygon fill="#000" stroke="#000" points="408 243 416 247 408 251"/><polygon fill="#F0F8FF" stroke="#000" points="48 214 208 214 216 222 216 281 48 281 48 214"/><path fill="none" stroke="#000" d="M 208 214 L 208 222"/><path fill="none" stroke="#000" d="M 208 222 L 216 222"/><text x="128" y="227" fill="#000" font-family="sans-serif" font-size="11" font-style="normal" font-weight="normal" text-anchor="middle" textLength="144">PacketType.CLIENT_STREAM</text><text x="86" y="240" fill="#000" font-family="sans-serif" font-size="11" font-style="normal" font-weight="normal" text-anchor="middle" textLength="60">channel ID</text><text x="86" y="253" fill="#000" font-family="sans-serif" font-size="11" font-style="normal" font-weight="normal" text-anchor="middle" textLength="60">service ID</text><text x="83" y="266" fill="#000" font-family="sans-serif" font-size="11" font-style="normal" font-weight="normal" text-anchor="middle" textLength="54">method ID</text><text x="77" y="279" fill="#000" font-family="sans-serif" font-size="11" font-style="normal" font-weight="normal" text-anchor="middle" textLength="42">payload</text><path fill="none" stroke="#000" d="M 240 348 L 416 348"/><polygon fill="#000" stroke="#000" points="408 344 416 348 408 352"/><polygon fill="#F0F8FF" stroke="#000" points="24 321 208 321 216 329 216 375 24 375 24 321"/><path fill="none" stroke="#000" d="M 208 321 L 208 329"/><path fill="none" stroke="#000" d="M 208 329 L 216 329"/><text x="116" y="334" fill="#000" font-family="sans-serif" font-size="11" font-style="normal" font-weight="normal" text-anchor="middle" textLength="168">PacketType.CLIENT_STREAM_END</text><text x="62" y="347" fill="#000" font-family="sans-serif" font-size="11" font-style="normal" font-weight="normal" text-anchor="middle" textLength="60">channel ID</text><text x="62" y="360" fill="#000" font-family="sans-serif" font-size="11" font-style="normal" font-weight="normal" text-anchor="middle" textLength="60">service ID</text><text x="59" y="373" fill="#000" font-family="sans-serif" font-size="11" font-style="normal" font-weight="normal" text-anchor="middle" textLength="54">method ID</text><path fill="none" stroke="#000" d="M 240 455 L 416 455"/><polygon fill="#000" stroke="#000" points="248 451 240 455 248 459"/><polygon fill="#F0F8FF" stroke="#000" points="440 415 570 415 578 423 578 495 440 495 440 415"/><path fill="none" stroke="#000" d="M 570 415 L 570 423"/><path fill="none" stroke="#000" d="M 570 423 L 578 423"/><text x="505" y="428" fill="#000" font-family="sans-serif" font-size="11" font-style="normal" font-weight="normal" text-anchor="middle" textLength="114">PacketType.RESPONSE</text><text x="478" y="441" fill="#000" font-family="sans-serif" font-size="11" font-style="normal" font-weight="normal" text-anchor="middle" textLength="60">channel ID</text><text x="478" y="454" fill="#000" font-family="sans-serif" font-size="11" font-style="normal" font-weight="normal" text-anchor="middle" textLength="60">service ID</text><text x="475" y="467" fill="#000" font-family="sans-serif" font-size="11" font-style="normal" font-weight="normal" text-anchor="middle" textLength="54">method ID</text><text x="469" y="480" fill="#000" font-family="sans-serif" font-size="11" font-style="normal" font-weight="normal" text-anchor="middle" textLength="42">payload</text><text x="466" y="493" fill="#000" font-family="sans-serif" font-size="11" font-style="normal" font-weight="normal" text-anchor="middle" textLength="36">status</text><text x="259" y="145" fill="#000" font-family="sans-serif" font-size="11" font-style="normal" font-weight="normal" text-anchor="middle" textLength="30">start</text><text x="313" y="245" fill="#000" font-family="sans-serif" font-size="11" font-style="normal" font-weight="normal" text-anchor="middle" textLength="138">messages (zero or more)</text><text x="256" y="346" fill="#000" font-family="sans-serif" font-size="11" font-style="normal" font-weight="normal" text-anchor="middle" textLength="24">done</text><text x="392" y="453" fill="#000" font-family="sans-serif" font-size="11" font-style="normal" font-weight="normal" text-anchor="middle" textLength="48">response</text></svg>