<svg xmlns="http://www.w3.org/2000/svg" xmlns:xlink="http://www.w3.org/1999/xlink" width="598" height="452" viewBox="0 0 598 452"><defs id="defs_block"><filter id="filter_blur" width="1.157" height="1.504" x="-.079" y="-.252"><feGaussianBlur id="feGaussianBlur3780" stdDeviation="4.2"/></filter></defs><title>Cancelled Client Streaming RPC</title><desc>seqdiag { default_note_color = aliceblue; client -&gt; server [ label = &quot;start&quot;, leftnote = &quot;PacketType.REQUEST\nchannel ID\nservice ID\nmethod ID&quot; ]; client --&gt; server [ noactivate, label = &quot;messages (zero or more)&quot;, leftnote = &quot;PacketType.CLIENT_STREAM\nchannel ID\nservice ID\nmethod ID\npayload&quot; ]; client -&gt; server [ noactivate, label = &quot;cancel&quot;, rightnote = &quot;PacketType.CLIENT_ERROR\nchannel ID\nservice ID\nmethod ID\nstatus=CANCELLED&quot; ]; }</desc><rect style="filter:url(#filter_blur);opacity:.7;fill-opacity:1" width="8" height="277" x="209" y="153" fill="#000"/><rect style="filter:url(#filter_blur);opacity:.7;fill-opacity:1" width="8" height="277" x="401" y="153" fill="#000"/><polygon fill="#000" stroke="#000" points="64 126 189 126 197 134 197 180 64 180 64 126" style="filter:url(#filter_blur);opacity:.7;fill-opacity:1"/><polygon fill="#000" stroke="#000" points="27 220 189 220 197 228 197 287 27 287 27 220" style="filter:url(#filter_blur);opacity:.7;fill-opacity:1"/><polygon fill="#000" stroke="#000" points="421 327 577 327 585 335 585 394 421 394 421 327" style="filter:url(#filter_blur);opacity:.7;fill-opacity:1"/><rect style="filter:url(#filter_blur);opacity:.7;fill-opacity:1" width="128" height="40" x="149" y="46" fill="#000" stroke="#000"/><rect style="filter:url(#filter_blur);opacity:.7;fill-opacity:1" width="128" height="40" x="341" y="46" fill="#000" stroke="#000"/><path fill="none" stroke="#000" stroke-dasharray="8 4" d="M 210 80 L 210 440"/><rect width="8" height="277" x="206" y="147" fill="#ffe4b5" stroke="#000"/><path fill="none" stroke="#000" stroke-dasharray="8 4" d="M 402 80 L 402 440"/><rect width="8" height="277" x="398" y="147" fill="#ffe4b5" stroke="#000"/><rect width="128" height="40" x="146" y="40" fill="#FFF" stroke="#000"/><text x="210.5" y="66" fill="#000" font-family="sans-serif" font-size="11" font-style="normal" font-weight="normal" text-anchor="middle" textLength="37">client</text><rect width="128" height="40" x="338" y="40" fill="#FFF" stroke="#000"/><text x="402.5" y="66" fill="#000" font-family="sans-serif" font-size="11" font-style="normal" font-weight="normal" text-anchor="middle" textLength="37">server</text><path fill="none" stroke="#000" d="M 218 147 L 394 147"/><polygon fill="#000" stroke="#000" points="386 143 394 147 386 151"/><polygon fill="#F0F8FF" stroke="#000" points="61 120 186 120 194 128 194 174 61 174 61 120"/><path fill="none" stroke="#000" d="M 186 120 L 186 128"/><path fill="none" stroke="#000" d="M 186 128 L 194 128"/><text x="123.5" y="133" fill="#000" font-family="sans-serif" font-size="11" font-style="normal" font-weight="normal" text-anchor="middle" textLength="109">PacketType.REQUEST</text><text x="99.5" y="146" fill="#000" font-family="sans-serif" font-size="11" font-style="normal" font-weight="normal" text-anchor="middle" textLength="61">channel ID</text><text x="99.5" y="159" fill="#000" font-family="sans-serif" font-size="11" font-style="normal" font-weight="normal" text-anchor="middle" textLength="61">service ID</text><text x="96.5" y="172" fill="#000" font-family="sans-serif" font-size="11" font-style="normal" font-weight="normal" text-anchor="middle" textLength="55">method ID</text><path fill="none" stroke="#000" stroke-dasharray="4" d="M 218 247 L 394 247"/><polygon fill="#000" stroke="#000" points="386 243 394 247 386 251"/><polygon fill="#F0F8FF" stroke="#000" points="24 214 186 214 194 222 194 281 24 281 24 214"/><path fill="none" stroke="#000" d="M 186 214 L 186 222"/><path fill="none" stroke="#000" d="M 186 222 L 194 222"/><text x="105" y="227" fill="#000" font-family="sans-serif" font-size="11" font-style="normal" font-weight="normal" text-anchor="middle" textLength="146">PacketType.CLIENT_STREAM</text><text x="62.5" y="240" fill="#000" font-family="sans-serif" font-size="11" font-style="normal" font-weight="normal" text-anchor="middle" textLength="61">channel ID</text><text x="62.5" y="253" fill="#000" font-family="sans-serif" font-size="11" font-style="normal" font-weight="normal" text-anchor="middle" textLength="61">service ID</text><text x="59.5" y="266" fill="#000" font-family="sans-serif" font-size="11" font-style="normal" font-weight="normal" text-anchor="middle" textLength="55">method ID</text><text x="53.5" y="279" fill="#000" font-family="sans-serif" font-size="11" font-style="normal" font-weight="normal" text-anchor="middle" textLength="43">payload</text><path fill="none" stroke="#000" d="M 218 354 L 394 354"/><polygon fill="#000" stroke="#000" points="386 350 394 354 386 358"/><polygon fill="#F0F8FF" stroke="#000" points="418 321 574 321 582 329 582 388 418 388 418 321"/><path fill="none" stroke="#000" d="M 574 321 L 574 329"/><path fill="none" stroke="#000" d="M 574 329 L 582 329"/><text x="496" y="334" fill="#000" font-family="sans-serif" font-size="11" font-style="normal" font-weight="normal" text-anchor="middle" textLength="140">PacketType.CLIENT_ERROR</text><text x="456.5" y="347" fill="#000" font-family="sans-serif" font-size="11" font-style="normal" font-weight="normal" text-anchor="middle" textLength="61">channel ID</text><text x="456.5" y="360" fill="#000" font-family="sans-serif" font-size="11" font-style="normal" font-weight="normal" text-anchor="middle" textLength="61">service ID</text><text x="453.5" y="373" fill="#000" font-family="sans-serif" font-size="11" font-style="normal" font-weight="normal" text-anchor="middle" textLength="55">method ID</text><text x="474.5" y="386" fill="#000" font-family="sans-serif" font-size="11" font-style="normal" font-weight="normal" text-anchor="middle" textLength="97">status=CANCELLED</text><text x="237.5" y="145" fill="#000" font-family="sans-serif" font-size="11" font-style="normal" font-weight="normal" text-anchor="middle" textLength="31">start</text><text x="292" y="245" fill="#000" font-family="sans-serif" font-size="11" font-style="normal" font-weight="normal" text-anchor="middle" textLength="140">messages (zero or more)</text><text x="240.5" y="352" fill="#000" font-family="sans-serif" font-size="11" font-style="normal" font-weight="normal" text-anchor="middle" textLength="37">cancel</text></svg>