<svg xmlns="http://www.w3.org/2000/svg" xmlns:xlink="http://www.w3.org/1999/xlink" width="640" height="280" viewBox="0 0 640 280" style="background-color:#fff"><defs id="defs_block"><filter id="filter_blur" width="1.157" height="1.504" x="-.079" y="-.252"><feGaussianBlur id="feGaussianBlur3780" stdDeviation="4.2"/></filter></defs><title>pw_rpc Requests</title><desc/><rect style="filter:url(#filter_blur)" width="528" height="60" x="56" y="110" fill="#F39800"/><ellipse cx="131" cy="66" fill="#000" stroke="#000" rx="8" ry="8" style="filter:url(#filter_blur);opacity:.7;fill-opacity:1"/><rect style="filter:url(#filter_blur);opacity:.7;fill-opacity:1" width="128" height="40" x="67" y="126" fill="#000" stroke="#000"/><rect style="filter:url(#filter_blur);opacity:.7;fill-opacity:1" width="128" height="40" x="259" y="126" fill="#000" stroke="#000"/><rect style="filter:url(#filter_blur);opacity:.7;fill-opacity:1" width="128" height="40" x="451" y="126" fill="#000" stroke="#000"/><ellipse cx="131" cy="226" fill="#000" stroke="#000" rx="64" ry="20" style="filter:url(#filter_blur);opacity:.7;fill-opacity:1"/><path fill="#000" stroke="#000" d="M 267 206 L 379 206 A8,8 0 0 1 387 214 L 387 238 A8,8 0 0 1 379 246 L 267 246 A8,8 0 0 1 259 238 L 259 214 A8,8 0 0 1 267 206" style="filter:url(#filter_blur);opacity:.7;fill-opacity:1"/><ellipse cx="128" cy="60" fill="#000" stroke="#000" rx="8" ry="8"/><text x="157" y="56" fill="#000" font-family="sans-serif" font-size="11" font-style="normal" font-weight="normal" text-anchor="middle" textLength="42">packets</text><rect width="128" height="40" x="64" y="120" fill="#FFF" stroke="#000"/><text x="128" y="146" fill="#000" font-family="sans-serif" font-size="11" font-style="normal" font-weight="normal" text-anchor="middle" textLength="36">Server</text><rect width="128" height="40" x="256" y="120" fill="#FFF" stroke="#000"/><text x="320" y="146" fill="#000" font-family="sans-serif" font-size="11" font-style="normal" font-weight="normal" text-anchor="middle" textLength="42">Service</text><rect width="128" height="40" x="448" y="120" fill="#FFF" stroke="#000"/><text x="512" y="146" fill="#000" font-family="sans-serif" font-size="11" font-style="normal" font-weight="normal" text-anchor="middle" textLength="96">internal::Method</text><ellipse cx="128" cy="220" fill="#FFF" stroke="#000" rx="64" ry="20"/><text x="128" y="226" fill="#000" font-family="sans-serif" font-size="11" font-style="normal" font-weight="normal" text-anchor="middle" textLength="108">generated services</text><path fill="#FFF" stroke="#000" d="M 264 200 L 376 200 A8,8 0 0 1 384 208 L 384 232 A8,8 0 0 1 376 240 L 264 240 A8,8 0 0 1 256 232 L 256 208 A8,8 0 0 1 264 200"/><text x="320" y="226" fill="#000" font-family="sans-serif" font-size="11" font-style="normal" font-weight="normal" text-anchor="middle" textLength="102">user-defined RPCs</text><path fill="none" stroke="#000" d="M 128 68 L 128 112"/><polygon fill="#000" stroke="#000" points="128 119 124 112 132 112 128 119"/><path fill="none" stroke="#000" d="M 192 220 L 248 220"/><polygon fill="#000" stroke="#000" points="255 220 248 216 248 224 255 220"/><path fill="none" stroke="#000" d="M 192 140 L 248 140"/><polygon fill="#000" stroke="#000" points="255 140 248 136 248 144 255 140"/><path fill="none" stroke="#000" d="M 384 140 L 440 140"/><polygon fill="#000" stroke="#000" points="447 140 440 136 440 144 447 140"/><path fill="none" stroke="#000" d="M 512 160 L 512 180"/><path fill="none" stroke="#000" d="M 128 180 L 512 180"/><path fill="none" stroke="#000" d="M 128 180 L 128 192"/><polygon fill="#000" stroke="#000" points="128 199 124 192 132 192 128 199"/><rect width="68.969" height="12" x="285.766" y="106" class="highlighted"/><text x="320" y="116" fill="#000" font-family="sans-serif" font-size="11" font-style="normal" font-weight="normal" text-anchor="middle" textLength="84"><tspan>pw_rpc</tspan> library</text></svg>