<svg xmlns="http://www.w3.org/2000/svg" xmlns:xlink="http://www.w3.org/1999/xlink" width="640" height="360" viewBox="0 0 640 360" style="background-color:#fff"><defs id="defs_block"><filter id="filter_blur" width="1.157" height="1.504" x="-.079" y="-.252"><feGaussianBlur id="feGaussianBlur3780" stdDeviation="4.2"/></filter></defs><title>pw_rpc Responses</title><desc/><rect style="filter:url(#filter_blur)" width="528" height="60" x="56" y="190" fill="#F39800"/><path fill="#000" stroke="#000" d="M 75 46 L 187 46 A8,8 0 0 1 195 54 L 195 78 A8,8 0 0 1 187 86 L 75 86 A8,8 0 0 1 67 78 L 67 54 A8,8 0 0 1 75 46" style="filter:url(#filter_blur);opacity:.7;fill-opacity:1"/><ellipse cx="131" cy="146" fill="#000" stroke="#000" rx="64" ry="20" style="filter:url(#filter_blur);opacity:.7;fill-opacity:1"/><rect style="filter:url(#filter_blur);opacity:.7;fill-opacity:1" width="128" height="40" x="259" y="206" fill="#000" stroke="#000"/><rect style="filter:url(#filter_blur);opacity:.7;fill-opacity:1" width="128" height="40" x="67" y="206" fill="#000" stroke="#000"/><rect style="filter:url(#filter_blur);opacity:.7;fill-opacity:1" width="128" height="40" x="451" y="206" fill="#000" stroke="#000"/><ellipse cx="131" cy="306" fill="#000" stroke="#000" rx="8" ry="8" style="filter:url(#filter_blur);opacity:.7;fill-opacity:1"/><path fill="#FFF" stroke="#000" d="M 72 40 L 184 40 A8,8 0 0 1 192 48 L 192 72 A8,8 0 0 1 184 80 L 72 80 A8,8 0 0 1 64 72 L 64 48 A8,8 0 0 1 72 40"/><text x="128" y="66" fill="#000" font-family="sans-serif" font-size="11" font-style="normal" font-weight="normal" text-anchor="middle" textLength="102">user-defined RPCs</text><ellipse cx="128" cy="140" fill="#FFF" stroke="#000" rx="64" ry="20"/><text x="128" y="146" fill="#000" font-family="sans-serif" font-size="11" font-style="normal" font-weight="normal" text-anchor="middle" textLength="108">generated services</text><rect width="128" height="40" x="256" y="200" fill="#FFF" stroke="#000"/><text x="320" y="226" fill="#000" font-family="sans-serif" font-size="11" font-style="normal" font-weight="normal" text-anchor="middle" textLength="36">Server</text><rect width="128" height="40" x="64" y="200" fill="#FFF" stroke="#000"/><text x="128" y="226" fill="#000" font-family="sans-serif" font-size="11" font-style="normal" font-weight="normal" text-anchor="middle" textLength="96">internal::Method</text><rect width="128" height="40" x="448" y="200" fill="#FFF" stroke="#000"/><text x="512" y="226" fill="#000" font-family="sans-serif" font-size="11" font-style="normal" font-weight="normal" text-anchor="middle" textLength="42">Channel</text><ellipse cx="128" cy="300" fill="#000" stroke="#000" rx="8" ry="8"/><text x="157" y="296" fill="#000" font-family="sans-serif" font-size="11" font-style="normal" font-weight="normal" text-anchor="middle" textLength="42">packets</text><path fill="none" stroke="#000" d="M 128 80 L 128 112"/><polygon fill="#000" stroke="#000" points="128 119 124 112 132 112 128 119"/><path fill="none" stroke="#000" d="M 128 160 L 128 192"/><polygon fill="#000" stroke="#000" points="128 199 124 192 132 192 128 199"/><path fill="none" stroke="#000" d="M 384 220 L 440 220"/><polygon fill="#000" stroke="#000" points="447 220 440 216 440 224 447 220"/><path fill="none" stroke="#000" d="M 192 220 L 248 220"/><polygon fill="#000" stroke="#000" points="255 220 248 216 248 224 255 220"/><path fill="none" stroke="#000" d="M 512 240 L 512 260"/><path fill="none" stroke="#000" d="M 128 260 L 512 260"/><path fill="none" stroke="#000" d="M 128 260 L 128 284"/><polygon fill="#000" stroke="#000" points="128 291 124 284 132 284 128 291"/><rect width="68.969" height="12" x="285.766" y="186" class="highlighted"/><text x="320" y="196" fill="#000" font-family="sans-serif" font-size="11" font-style="normal" font-weight="normal" text-anchor="middle" textLength="84"><tspan>pw_rpc</tspan> library</text></svg>