<svg xmlns="http://www.w3.org/2000/svg" xmlns:xlink="http://www.w3.org/1999/xlink" width="620.4" height="511.5" viewBox="0 0 564 465" style="background-color:#fff"><defs id="defs_block"><filter id="filter_blur" width="1.157" height="1.504" x="-.079" y="-.252"><feGaussianBlur id="feGaussianBlur3780" stdDeviation="4.2"/></filter></defs><title>Server Streaming RPC</title><desc/><rect style="filter:url(#filter_blur);opacity:.7;fill-opacity:1" width="8" height="284" x="171" y="159" fill="#000"/><rect style="filter:url(#filter_blur);opacity:.7;fill-opacity:1" width="8" height="214" x="363" y="159" fill="#000"/><polygon fill="#000" stroke="#000" points="27 126 151 126 159 134 159 193 27 193 27 126" style="filter:url(#filter_blur);opacity:.7;fill-opacity:1"/><polygon fill="#000" stroke="#000" points="383 233 543 233 551 241 551 300 383 300 383 233" style="filter:url(#filter_blur);opacity:.7;fill-opacity:1"/><polygon fill="#000" stroke="#000" points="383 340 513 340 521 348 521 407 383 407 383 340" style="filter:url(#filter_blur);opacity:.7;fill-opacity:1"/><rect style="filter:url(#filter_blur);opacity:.7;fill-opacity:1" width="128" height="40" x="111" y="46" fill="#000" stroke="#000"/><rect style="filter:url(#filter_blur);opacity:.7;fill-opacity:1" width="128" height="40" x="303" y="46" fill="#000" stroke="#000"/><path fill="none" stroke="#000" stroke-dasharray="8 4" d="M 172 80 L 172 453"/><rect width="8" height="284" x="168" y="153" fill="#ffe4b5" stroke="#000"/><path fill="none" stroke="#000" stroke-dasharray="8 4" d="M 364 80 L 364 453"/><rect width="8" height="214" x="360" y="153" fill="#ffe4b5" stroke="#000"/><rect width="128" height="40" x="108" y="40" fill="#FFF" stroke="#000"/><text x="172" y="66" fill="#000" font-family="sans-serif" font-size="11" font-style="normal" font-weight="normal" text-anchor="middle" textLength="36">client</text><rect width="128" height="40" x="300" y="40" fill="#FFF" stroke="#000"/><text x="364" y="66" fill="#000" font-family="sans-serif" font-size="11" font-style="normal" font-weight="normal" text-anchor="middle" textLength="36">server</text><path fill="none" stroke="#000" d="M 180 153 L 356 153"/><polygon fill="#000" stroke="#000" points="348 149 356 153 348 157"/><polygon fill="#F0F8FF" stroke="#000" points="24 120 148 120 156 128 156 187 24 187 24 120"/><path fill="none" stroke="#000" d="M 148 120 L 148 128"/><path fill="none" stroke="#000" d="M 148 128 L 156 128"/><text x="86" y="133" fill="#000" font-family="sans-serif" font-size="11" font-style="normal" font-weight="normal" text-anchor="middle" textLength="108">PacketType.REQUEST</text><text x="62" y="146" fill="#000" font-family="sans-serif" font-size="11" font-style="normal" font-weight="normal" text-anchor="middle" textLength="60">channel ID</text><text x="62" y="159" fill="#000" font-family="sans-serif" font-size="11" font-style="normal" font-weight="normal" text-anchor="middle" textLength="60">service ID</text><text x="59" y="172" fill="#000" font-family="sans-serif" font-size="11" font-style="normal" font-weight="normal" text-anchor="middle" textLength="54">method ID</text><text x="53" y="185" fill="#000" font-family="sans-serif" font-size="11" font-style="normal" font-weight="normal" text-anchor="middle" textLength="42">payload</text><path fill="none" stroke="#000" stroke-dasharray="4" d="M 180 260 L 356 260"/><polygon fill="#000" stroke="#000" points="188 256 180 260 188 264"/><polygon fill="#F0F8FF" stroke="#000" points="380 227 540 227 548 235 548 294 380 294 380 227"/><path fill="none" stroke="#000" d="M 540 227 L 540 235"/><path fill="none" stroke="#000" d="M 540 235 L 548 235"/><text x="460" y="240" fill="#000" font-family="sans-serif" font-size="11" font-style="normal" font-weight="normal" text-anchor="middle" textLength="144">PacketType.SERVER_STREAM</text><text x="418" y="253" fill="#000" font-family="sans-serif" font-size="11" font-style="normal" font-weight="normal" text-anchor="middle" textLength="60">channel ID</text><text x="418" y="266" fill="#000" font-family="sans-serif" font-size="11" font-style="normal" font-weight="normal" text-anchor="middle" textLength="60">service ID</text><text x="415" y="279" fill="#000" font-family="sans-serif" font-size="11" font-style="normal" font-weight="normal" text-anchor="middle" textLength="54">method ID</text><text x="409" y="292" fill="#000" font-family="sans-serif" font-size="11" font-style="normal" font-weight="normal" text-anchor="middle" textLength="42">payload</text><path fill="none" stroke="#000" d="M 180 367 L 356 367"/><polygon fill="#000" stroke="#000" points="188 363 180 367 188 371"/><polygon fill="#F0F8FF" stroke="#000" points="380 334 510 334 518 342 518 401 380 401 380 334"/><path fill="none" stroke="#000" d="M 510 334 L 510 342"/><path fill="none" stroke="#000" d="M 510 342 L 518 342"/><text x="445" y="347" fill="#000" font-family="sans-serif" font-size="11" font-style="normal" font-weight="normal" text-anchor="middle" textLength="114">PacketType.RESPONSE</text><text x="418" y="360" fill="#000" font-family="sans-serif" font-size="11" font-style="normal" font-weight="normal" text-anchor="middle" textLength="60">channel ID</text><text x="418" y="373" fill="#000" font-family="sans-serif" font-size="11" font-style="normal" font-weight="normal" text-anchor="middle" textLength="60">service ID</text><text x="415" y="386" fill="#000" font-family="sans-serif" font-size="11" font-style="normal" font-weight="normal" text-anchor="middle" textLength="54">method ID</text><text x="406" y="399" fill="#000" font-family="sans-serif" font-size="11" font-style="normal" font-weight="normal" text-anchor="middle" textLength="36">status</text><text x="205" y="151" fill="#000" font-family="sans-serif" font-size="11" font-style="normal" font-weight="normal" text-anchor="middle" textLength="42">request</text><text x="287" y="258" fill="#000" font-family="sans-serif" font-size="11" font-style="normal" font-weight="normal" text-anchor="middle" textLength="138">messages (zero or more)</text><text x="344" y="365" fill="#000" font-family="sans-serif" font-size="11" font-style="normal" font-weight="normal" text-anchor="middle" textLength="24">done</text></svg>