<svg xmlns="http://www.w3.org/2000/svg" xmlns:xlink="http://www.w3.org/1999/xlink" width="587.4" height="408.1" viewBox="0 0 534 371" style="background-color:#fff"><defs id="defs_block"><filter id="filter_blur" width="1.157" height="1.504" x="-.079" y="-.252"><feGaussianBlur id="feGaussianBlur3780" stdDeviation="4.2"/></filter></defs><title>Unary RPC</title><desc/><rect style="filter:url(#filter_blur);opacity:.7;fill-opacity:1" width="8" height="190" x="171" y="159" fill="#000"/><rect style="filter:url(#filter_blur);opacity:.7;fill-opacity:1" width="8" height="114" x="363" y="159" fill="#000"/><polygon fill="#000" stroke="#000" points="27 126 151 126 159 134 159 193 27 193 27 126" style="filter:url(#filter_blur);opacity:.7;fill-opacity:1"/><polygon fill="#000" stroke="#000" points="383 233 513 233 521 241 521 313 383 313 383 233" style="filter:url(#filter_blur);opacity:.7;fill-opacity:1"/><rect style="filter:url(#filter_blur);opacity:.7;fill-opacity:1" width="128" height="40" x="111" y="46" fill="#000" stroke="#000"/><rect style="filter:url(#filter_blur);opacity:.7;fill-opacity:1" width="128" height="40" x="303" y="46" fill="#000" stroke="#000"/><path fill="none" stroke="#000" stroke-dasharray="8 4" d="M 172 80 L 172 359"/><rect width="8" height="190" x="168" y="153" fill="#ffe4b5" stroke="#000"/><path fill="none" stroke="#000" stroke-dasharray="8 4" d="M 364 80 L 364 359"/><rect width="8" height="114" x="360" y="153" fill="#ffe4b5" stroke="#000"/><rect width="128" height="40" x="108" y="40" fill="#FFF" stroke="#000"/><text x="172" y="66" fill="#000" font-family="sans-serif" font-size="11" font-style="normal" font-weight="normal" text-anchor="middle" textLength="36">client</text><rect width="128" height="40" x="300" y="40" fill="#FFF" stroke="#000"/><text x="364" y="66" fill="#000" font-family="sans-serif" font-size="11" font-style="normal" font-weight="normal" text-anchor="middle" textLength="36">server</text><path fill="none" stroke="#000" d="M 180 153 L 356 153"/><polygon fill="#000" stroke="#000" points="348 149 356 153 348 157"/><polygon fill="#F0F8FF" stroke="#000" points="24 120 148 120 156 128 156 187 24 187 24 120"/><path fill="none" stroke="#000" d="M 148 120 L 148 128"/><path fill="none" stroke="#000" d="M 148 128 L 156 128"/><text x="86" y="133" fill="#000" font-family="sans-serif" font-size="11" font-style="normal" font-weight="normal" text-anchor="middle" textLength="108">PacketType.REQUEST</text><text x="62" y="146" fill="#000" font-family="sans-serif" font-size="11" font-style="normal" font-weight="normal" text-anchor="middle" textLength="60">channel ID</text><text x="62" y="159" fill="#000" font-family="sans-serif" font-size="11" font-style="normal" font-weight="normal" text-anchor="middle" textLength="60">service ID</text><text x="59" y="172" fill="#000" font-family="sans-serif" font-size="11" font-style="normal" font-weight="normal" text-anchor="middle" textLength="54">method ID</text><text x="53" y="185" fill="#000" font-family="sans-serif" font-size="11" font-style="normal" font-weight="normal" text-anchor="middle" textLength="42">payload</text><path fill="none" stroke="#000" d="M 180 267 L 356 267"/><polygon fill="#000" stroke="#000" points="188 263 180 267 188 271"/><polygon fill="#F0F8FF" stroke="#000" points="380 227 510 227 518 235 518 307 380 307 380 227"/><path fill="none" stroke="#000" d="M 510 227 L 510 235"/><path fill="none" stroke="#000" d="M 510 235 L 518 235"/><text x="445" y="240" fill="#000" font-family="sans-serif" font-size="11" font-style="normal" font-weight="normal" text-anchor="middle" textLength="114">PacketType.RESPONSE</text><text x="418" y="253" fill="#000" font-family="sans-serif" font-size="11" font-style="normal" font-weight="normal" text-anchor="middle" textLength="60">channel ID</text><text x="418" y="266" fill="#000" font-family="sans-serif" font-size="11" font-style="normal" font-weight="normal" text-anchor="middle" textLength="60">service ID</text><text x="415" y="279" fill="#000" font-family="sans-serif" font-size="11" font-style="normal" font-weight="normal" text-anchor="middle" textLength="54">method ID</text><text x="409" y="292" fill="#000" font-family="sans-serif" font-size="11" font-style="normal" font-weight="normal" text-anchor="middle" textLength="42">payload</text><text x="406" y="305" fill="#000" font-family="sans-serif" font-size="11" font-style="normal" font-weight="normal" text-anchor="middle" textLength="36">status</text><text x="205" y="151" fill="#000" font-family="sans-serif" font-size="11" font-style="normal" font-weight="normal" text-anchor="middle" textLength="42">request</text><text x="332" y="265" fill="#000" font-family="sans-serif" font-size="11" font-style="normal" font-weight="normal" text-anchor="middle" textLength="48">response</text></svg>