<svg xmlns="http://www.w3.org/2000/svg" xmlns:xlink="http://www.w3.org/1999/xlink" width="524" height="358" viewBox="0 0 524 358"><defs id="defs_block"><filter id="filter_blur" width="1.157" height="1.504" x="-.079" y="-.252"><feGaussianBlur id="feGaussianBlur3780" stdDeviation="4.2"/></filter></defs><title>Cancelled Unary RPC</title><desc>seqdiag { default_note_color = aliceblue; client -&gt; server [ label = &quot;request&quot;, leftnote = &quot;PacketType.REQUEST\nchannel ID\nservice ID\nmethod ID\npayload&quot; ]; client -&gt; server [ noactivate, label = &quot;cancel&quot;, leftnote = &quot;PacketType.CLIENT_ERROR\nchannel ID\nservice ID\nmethod ID\nstatus=CANCELLED&quot; ]; }</desc><rect style="filter:url(#filter_blur);opacity:.7;fill-opacity:1" width="8" height="177" x="203" y="159" fill="#000"/><rect style="filter:url(#filter_blur);opacity:.7;fill-opacity:1" width="8" height="177" x="395" y="159" fill="#000"/><polygon fill="#000" stroke="#000" points="58 126 183 126 191 134 191 193 58 193 58 126" style="filter:url(#filter_blur);opacity:.7;fill-opacity:1"/><polygon fill="#000" stroke="#000" points="27 233 183 233 191 241 191 300 27 300 27 233" style="filter:url(#filter_blur);opacity:.7;fill-opacity:1"/><rect style="filter:url(#filter_blur);opacity:.7;fill-opacity:1" width="128" height="40" x="143" y="46" fill="#000" stroke="#000"/><rect style="filter:url(#filter_blur);opacity:.7;fill-opacity:1" width="128" height="40" x="335" y="46" fill="#000" stroke="#000"/><path fill="none" stroke="#000" stroke-dasharray="8 4" d="M 204 80 L 204 346"/><rect width="8" height="177" x="200" y="153" fill="#ffe4b5" stroke="#000"/><path fill="none" stroke="#000" stroke-dasharray="8 4" d="M 396 80 L 396 346"/><rect width="8" height="177" x="392" y="153" fill="#ffe4b5" stroke="#000"/><rect width="128" height="40" x="140" y="40" fill="#FFF" stroke="#000"/><text x="204.5" y="66" fill="#000" font-family="sans-serif" font-size="11" font-style="normal" font-weight="normal" text-anchor="middle" textLength="37">client</text><rect width="128" height="40" x="332" y="40" fill="#FFF" stroke="#000"/><text x="396.5" y="66" fill="#000" font-family="sans-serif" font-size="11" font-style="normal" font-weight="normal" text-anchor="middle" textLength="37">server</text><path fill="none" stroke="#000" d="M 212 153 L 388 153"/><polygon fill="#000" stroke="#000" points="380 149 388 153 380 157"/><polygon fill="#F0F8FF" stroke="#000" points="55 120 180 120 188 128 188 187 55 187 55 120"/><path fill="none" stroke="#000" d="M 180 120 L 180 128"/><path fill="none" stroke="#000" d="M 180 128 L 188 128"/><text x="117.5" y="133" fill="#000" font-family="sans-serif" font-size="11" font-style="normal" font-weight="normal" text-anchor="middle" textLength="109">PacketType.REQUEST</text><text x="93.5" y="146" fill="#000" font-family="sans-serif" font-size="11" font-style="normal" font-weight="normal" text-anchor="middle" textLength="61">channel ID</text><text x="93.5" y="159" fill="#000" font-family="sans-serif" font-size="11" font-style="normal" font-weight="normal" text-anchor="middle" textLength="61">service ID</text><text x="90.5" y="172" fill="#000" font-family="sans-serif" font-size="11" font-style="normal" font-weight="normal" text-anchor="middle" textLength="55">method ID</text><text x="84.5" y="185" fill="#000" font-family="sans-serif" font-size="11" font-style="normal" font-weight="normal" text-anchor="middle" textLength="43">payload</text><path fill="none" stroke="#000" d="M 212 260 L 388 260"/><polygon fill="#000" stroke="#000" points="380 256 388 260 380 264"/><polygon fill="#F0F8FF" stroke="#000" points="24 227 180 227 188 235 188 294 24 294 24 227"/><path fill="none" stroke="#000" d="M 180 227 L 180 235"/><path fill="none" stroke="#000" d="M 180 235 L 188 235"/><text x="102" y="240" fill="#000" font-family="sans-serif" font-size="11" font-style="normal" font-weight="normal" text-anchor="middle" textLength="140">PacketType.CLIENT_ERROR</text><text x="62.5" y="253" fill="#000" font-family="sans-serif" font-size="11" font-style="normal" font-weight="normal" text-anchor="middle" textLength="61">channel ID</text><text x="62.5" y="266" fill="#000" font-family="sans-serif" font-size="11" font-style="normal" font-weight="normal" text-anchor="middle" textLength="61">service ID</text><text x="59.5" y="279" fill="#000" font-family="sans-serif" font-size="11" font-style="normal" font-weight="normal" text-anchor="middle" textLength="55">method ID</text><text x="80.5" y="292" fill="#000" font-family="sans-serif" font-size="11" font-style="normal" font-weight="normal" text-anchor="middle" textLength="97">status=CANCELLED</text><text x="237.5" y="151" fill="#000" font-family="sans-serif" font-size="11" font-style="normal" font-weight="normal" text-anchor="middle" textLength="43">request</text><text x="234.5" y="258" fill="#000" font-family="sans-serif" font-size="11" font-style="normal" font-weight="normal" text-anchor="middle" textLength="37">cancel</text></svg>