<svg xmlns="http://www.w3.org/2000/svg" xmlns:xlink="http://www.w3.org/1999/xlink" height="652" viewBox="0 0 573 652" style="background-color:#fff"><defs id="defs_block"><filter id="filter_blur" width="1.157" height="1.504" x="-.079" y="-.252"><feGaussianBlur id="feGaussianBlur3780" stdDeviation="4.2"/></filter></defs><title>pw_transfer Reads</title><desc/><rect style="filter:url(#filter_blur);opacity:.7;fill-opacity:1" width="8" height="464" x="221" y="166" fill="#000"/><rect style="filter:url(#filter_blur);opacity:.7;fill-opacity:1" width="8" height="464" x="413" y="166" fill="#000"/><polygon fill="#000" stroke="#000" points="27 126 201 126 209 134 209 206 27 206 27 126" style="filter:url(#filter_blur);opacity:.7;fill-opacity:1"/><polygon fill="#000" stroke="#000" points="433 246 552 246 560 254 560 300 433 300 433 246" style="filter:url(#filter_blur);opacity:.7;fill-opacity:1"/><polygon fill="#000" stroke="#000" points="39 340 201 340 209 348 209 420 39 420 39 340" style="filter:url(#filter_blur);opacity:.7;fill-opacity:1"/><polygon fill="#000" stroke="#000" points="433 460 552 460 560 468 560 514 433 514 433 460" style="filter:url(#filter_blur);opacity:.7;fill-opacity:1"/><polygon fill="#000" stroke="#000" points="118 555 201 555 209 563 209 583 118 583 118 555" style="filter:url(#filter_blur);opacity:.7;fill-opacity:1"/><rect style="filter:url(#filter_blur);opacity:.7;fill-opacity:1" width="128" height="40" x="161" y="46" fill="#000" stroke="#000"/><rect style="filter:url(#filter_blur);opacity:.7;fill-opacity:1" width="128" height="40" x="353" y="46" fill="#000" stroke="#000"/><path fill="none" stroke="#000" stroke-dasharray="8 4" d="M 222 80 L 222 640"/><rect width="8" height="464" x="218" y="160" fill="#ffe4b5" stroke="#000"/><path fill="none" stroke="#000" stroke-dasharray="8 4" d="M 414 80 L 414 640"/><rect width="8" height="464" x="410" y="160" fill="#ffe4b5" stroke="#000"/><rect width="128" height="40" x="158" y="40" fill="#FFF" stroke="#000"/><text x="222" y="66" fill="#000" font-family="sans-serif" font-size="11" font-style="normal" font-weight="normal" text-anchor="middle" textLength="37">client</text><rect width="128" height="40" x="350" y="40" fill="#FFF" stroke="#000"/><text x="414" y="66" fill="#000" font-family="sans-serif" font-size="11" font-style="normal" font-weight="normal" text-anchor="middle" textLength="37">server</text><path fill="none" stroke="#000" d="M 230 160 L 406 160"/><polygon fill="#000" stroke="#000" points="398 156 406 160 398 164"/><polygon fill="#F0F8FF" stroke="#000" points="24 120 198 120 206 128 206 200 24 200 24 120"/><path fill="none" stroke="#000" d="M 198 120 L 198 128"/><path fill="none" stroke="#000" d="M 198 128 L 206 128"/><text x="65" y="133" fill="#000" font-family="sans-serif" font-size="11" font-style="normal" font-weight="normal" text-anchor="middle" textLength="67">transfer_id</text><text x="50" y="146" fill="#000" font-family="sans-serif" font-size="11" font-style="normal" font-weight="normal" text-anchor="middle" textLength="37">offset</text><text x="83" y="159" fill="#000" font-family="sans-serif" font-size="11" font-style="normal" font-weight="normal" text-anchor="middle" textLength="103">window_end_offset</text><text x="111" y="172" fill="#000" font-family="sans-serif" font-size="11" font-style="normal" font-weight="normal" text-anchor="middle" textLength="158">type=PARAMETERS_RETRANSMIT</text><text x="74" y="185" fill="#000" font-family="sans-serif" font-size="11" font-style="normal" font-weight="normal" text-anchor="middle" textLength="85">max_chunk_size</text><text x="65" y="198" fill="#000" font-family="sans-serif" font-size="11" font-style="normal" font-weight="normal" text-anchor="middle" textLength="67">chunk_delay</text><path fill="none" stroke="#000" stroke-dasharray="4" d="M 230 267 L 406 267"/><polygon fill="#000" stroke="#000" points="238 263 230 267 238 271"/><polygon fill="#F0F8FF" stroke="#000" points="430 240 549 240 557 248 557 294 430 294 430 240"/><path fill="none" stroke="#000" d="M 549 240 L 549 248"/><path fill="none" stroke="#000" d="M 549 248 L 557 248"/><text x="471" y="253" fill="#000" font-family="sans-serif" font-size="11" font-style="normal" font-weight="normal" text-anchor="middle" textLength="67">transfer_id</text><text x="456" y="266" fill="#000" font-family="sans-serif" font-size="11" font-style="normal" font-weight="normal" text-anchor="middle" textLength="37">offset</text><text x="450" y="279" fill="#000" font-family="sans-serif" font-size="11" font-style="normal" font-weight="normal" text-anchor="middle" textLength="25">data</text><text x="489" y="292" fill="#000" font-family="sans-serif" font-size="11" font-style="normal" font-weight="normal" text-anchor="middle" textLength="103">(remaining_bytes)</text><path fill="none" stroke="#000" stroke-dasharray="4" d="M 230 374 L 406 374"/><polygon fill="#000" stroke="#000" points="398 370 406 374 398 378"/><polygon fill="#F0F8FF" stroke="#000" points="36 334 198 334 206 342 206 414 36 414 36 334"/><path fill="none" stroke="#000" d="M 198 334 L 198 342"/><path fill="none" stroke="#000" d="M 198 342 L 206 342"/><text x="77" y="347" fill="#000" font-family="sans-serif" font-size="11" font-style="normal" font-weight="normal" text-anchor="middle" textLength="67">transfer_id</text><text x="62" y="360" fill="#000" font-family="sans-serif" font-size="11" font-style="normal" font-weight="normal" text-anchor="middle" textLength="37">offset</text><text x="95" y="373" fill="#000" font-family="sans-serif" font-size="11" font-style="normal" font-weight="normal" text-anchor="middle" textLength="103">window_end_offset</text><text x="117" y="386" fill="#000" font-family="sans-serif" font-size="11" font-style="normal" font-weight="normal" text-anchor="middle" textLength="146">type=PARAMETERS_CONTINUE</text><text x="92" y="399" fill="#000" font-family="sans-serif" font-size="11" font-style="normal" font-weight="normal" text-anchor="middle" textLength="97">(max_chunk_size)</text><text x="83" y="412" fill="#000" font-family="sans-serif" font-size="11" font-style="normal" font-weight="normal" text-anchor="middle" textLength="79">(chunk_delay)</text><path fill="none" stroke="#000" d="M 230 481 L 406 481"/><polygon fill="#000" stroke="#000" points="238 477 230 481 238 485"/><polygon fill="#F0F8FF" stroke="#000" points="430 454 549 454 557 462 557 508 430 508 430 454"/><path fill="none" stroke="#000" d="M 549 454 L 549 462"/><path fill="none" stroke="#000" d="M 549 462 L 557 462"/><text x="471" y="467" fill="#000" font-family="sans-serif" font-size="11" font-style="normal" font-weight="normal" text-anchor="middle" textLength="67">transfer_id</text><text x="456" y="480" fill="#000" font-family="sans-serif" font-size="11" font-style="normal" font-weight="normal" text-anchor="middle" textLength="37">offset</text><text x="450" y="493" fill="#000" font-family="sans-serif" font-size="11" font-style="normal" font-weight="normal" text-anchor="middle" textLength="25">data</text><text x="489" y="506" fill="#000" font-family="sans-serif" font-size="11" font-style="normal" font-weight="normal" text-anchor="middle" textLength="103">remaining_bytes=0</text><path fill="none" stroke="#000" d="M 230 563 L 406 563"/><polygon fill="#000" stroke="#000" points="398 559 406 563 398 567"/><polygon fill="#F0F8FF" stroke="#000" points="115 549 198 549 206 557 206 577 115 577 115 549"/><path fill="none" stroke="#000" d="M 198 549 L 198 557"/><path fill="none" stroke="#000" d="M 198 557 L 206 557"/><text x="156" y="562" fill="#000" font-family="sans-serif" font-size="11" font-style="normal" font-weight="normal" text-anchor="middle" textLength="67">transfer_id</text><text x="150" y="575" fill="#000" font-family="sans-serif" font-size="11" font-style="normal" font-weight="normal" text-anchor="middle" textLength="55">status=OK</text><text x="304" y="158" fill="#000" font-family="sans-serif" font-size="11" font-style="normal" font-weight="normal" text-anchor="middle" textLength="140">set transfer parameters</text><text x="360" y="252" fill="#000" font-family="sans-serif" font-size="11" font-style="normal" font-weight="normal" text-anchor="middle" textLength="91">requested bytes</text><text x="342" y="265" fill="#000" font-family="sans-serif" font-size="11" font-style="normal" font-weight="normal" text-anchor="middle" textLength="128">(zero or more chunks)</text><text x="313" y="359" fill="#000" font-family="sans-serif" font-size="11" font-style="normal" font-weight="normal" text-anchor="middle" textLength="158">update transfer parameters</text><text x="267" y="372" fill="#000" font-family="sans-serif" font-size="11" font-style="normal" font-weight="normal" text-anchor="middle" textLength="67">(as needed)</text><text x="372" y="479" fill="#000" font-family="sans-serif" font-size="11" font-style="normal" font-weight="normal" text-anchor="middle" textLength="67">final chunk</text><text x="301" y="561" fill="#000" font-family="sans-serif" font-size="11" font-style="normal" font-weight="normal" text-anchor="middle" textLength="134">acknowledge completion</text></svg>