<svg xmlns="http://www.w3.org/2000/svg" xmlns:xlink="http://www.w3.org/1999/xlink" width="256" height="680" viewBox="0 0 256 680" style="background-color:#fff"><defs id="defs_block"><filter id="filter_blur" width="1.157" height="1.504" x="-.079" y="-.252"><feGaussianBlur id="feGaussianBlur3780" stdDeviation="4.2"/></filter></defs><title>Example pw_log Layer Diagram</title><desc/><rect style="filter:url(#filter_blur)" width="144" height="460" x="56" y="30" fill="#AAA"/><rect style="filter:url(#filter_blur);opacity:.7;fill-opacity:1" width="128" height="40" x="67" y="46" fill="#000" stroke="#000"/><rect style="filter:url(#filter_blur);opacity:.7;fill-opacity:1" width="128" height="40" x="67" y="126" fill="#000" stroke="#000"/><rect style="filter:url(#filter_blur);opacity:.7;fill-opacity:1" width="128" height="40" x="67" y="206" fill="#000" stroke="#000"/><rect style="filter:url(#filter_blur);opacity:.7;fill-opacity:1" width="128" height="40" x="67" y="286" fill="#000" stroke="#000"/><rect style="filter:url(#filter_blur);opacity:.7;fill-opacity:1" width="128" height="40" x="67" y="366" fill="#000" stroke="#000"/><rect style="filter:url(#filter_blur);opacity:.7;fill-opacity:1" width="128" height="40" x="67" y="446" fill="#000" stroke="#000"/><rect style="filter:url(#filter_blur);opacity:.7;fill-opacity:1" width="128" height="40" x="67" y="526" fill="#000" stroke="#000"/><rect style="filter:url(#filter_blur);opacity:.7;fill-opacity:1" width="128" height="40" x="67" y="606" fill="#000" stroke="#000"/><rect width="128" height="40" x="64" y="40" fill="#FFF" stroke="#000"/><text x="128.5" y="67" fill="#000" font-family="sans-serif" font-size="14" font-style="normal" font-weight="normal" text-anchor="middle" textLength="61">App code</text><rect width="128" height="40" x="64" y="120" fill="#FFF" stroke="#000"/><text x="128.5" y="147" fill="#000" font-family="sans-serif" font-size="14" font-style="normal" font-weight="normal" text-anchor="middle" textLength="45">pw_log</text><rect width="128" height="40" x="64" y="200" fill="#FFF" stroke="#000"/><text x="128.5" y="227" fill="#000" font-family="sans-serif" font-size="14" font-style="normal" font-weight="normal" text-anchor="middle" textLength="91">pw_log_basic</text><rect width="128" height="40" x="64" y="280" fill="#FFF" stroke="#000"/><text x="128" y="307" fill="#000" font-family="sans-serif" font-size="14" font-style="normal" font-weight="normal" text-anchor="middle" textLength="68">pw_sys_io</text><rect width="128" height="40" x="64" y="360" fill="#FFF" stroke="#000"/><text x="128" y="379" fill="#000" font-family="sans-serif" font-size="14" font-style="normal" font-weight="normal" text-anchor="middle" textLength="76">pw_sys_io_</text><text x="128" y="395" fill="#000" font-family="sans-serif" font-size="14" font-style="normal" font-weight="normal" text-anchor="middle" textLength="68">stm32f429</text><rect width="128" height="40" x="64" y="440" fill="#FFF" stroke="#000"/><text x="128" y="467" fill="#000" font-family="sans-serif" font-size="14" font-style="normal" font-weight="normal" text-anchor="middle" textLength="68">UART pins</text><rect width="128" height="40" x="64" y="520" fill="#FFF" stroke="#000"/><text x="128" y="547" fill="#000" font-family="sans-serif" font-size="14" font-style="normal" font-weight="normal" text-anchor="middle" textLength="76">FTDI cable</text><rect width="128" height="40" x="64" y="600" fill="#FFF" stroke="#000"/><text x="128.5" y="627" fill="#000" font-family="sans-serif" font-size="14" font-style="normal" font-weight="normal" text-anchor="middle" textLength="53">Minicom</text><path fill="none" stroke="#000" d="M 128 560 L 128 592"/><polygon fill="#000" stroke="#000" points="128 599 124 592 132 592 128 599"/><path fill="none" stroke="#000" d="M 128 80 L 128 112"/><polygon fill="#000" stroke="#000" points="128 119 124 112 132 112 128 119"/><path fill="none" stroke="#000" d="M 128 160 L 128 192"/><polygon fill="#000" stroke="#000" points="128 199 124 192 132 192 128 199"/><path fill="none" stroke="#000" d="M 128 240 L 128 272"/><polygon fill="#000" stroke="#000" points="128 279 124 272 132 272 128 279"/><path fill="none" stroke="#000" d="M 128 320 L 128 352"/><polygon fill="#000" stroke="#000" points="128 359 124 352 132 352 128 359"/><path fill="none" stroke="#000" d="M 128 400 L 128 432"/><polygon fill="#000" stroke="#000" points="128 439 124 432 132 432 128 439"/><path fill="none" stroke="#000" d="M 128 480 L 128 512"/><polygon fill="#000" stroke="#000" points="128 519 124 512 132 512 128 519"/><text x="128" y="37" fill="#000" font-family="sans-serif" font-size="14" font-style="normal" font-weight="normal" text-anchor="middle" textLength="114">Microcontroller</text></svg>